Coordinates
version=1
nRows=16
nColumns=22
inDegrees=yes

Units are S.I. units (second, meters, Newtons, ...)
If the header above contains a line with 'inDegrees', this indicates whether rotational values are in degrees (yes) or radians (no).

endheader
time	pelvis_tilt	pelvis_list	pelvis_rotation	pelvis_tx	pelvis_ty	pelvis_tz	hip_flexion_r	hip_adduction_r	hip_rotation_r	knee_angle_r	ankle_angle_r	subtalar_angle_r	hip_flexion_l	hip_adduction_l	hip_rotation_l	knee_angle_l	ankle_angle_l	subtalar_angle_l	lumbar_extension	lumbar_bending	lumbar_rotation
      1.74000000	     -6.99454207	     -1.57931796	    -26.98399050	     -0.89390105	      0.88010346	     -0.39402481	     39.51963884	     -1.20010180	     -0.36147401	    -44.69889565	      6.28903923	      1.27801275	     -1.87386717	     -2.01702462	     -1.73781294	     -6.93192653	     19.60607359	     -2.48803428	     -4.40240011	      2.91688346	      6.87740122
      1.75000000	     -6.95209653	     -1.59278758	    -26.98348705	     -0.89066954	      0.87949072	     -0.39233688	     39.23253997	     -1.20411351	     -0.29809158	    -42.62017642	      6.08397579	      1.54604905	     -2.09594524	     -2.00920873	     -1.71202109	     -7.10618757	     19.90886251	     -2.51074730	     -4.43207957	      2.97878555	      6.80210233
      1.76000000	     -6.92801943	     -1.56404869	    -26.98391585	     -0.88734238	      0.87875218	     -0.39059003	     38.94110861	     -1.25101184	     -0.25162523	    -40.44365027	      5.80045786	      1.75594850	     -2.27691293	     -1.97022314	     -1.69948305	     -7.30196775	     20.21263822	     -2.52622071	     -4.41730091	      3.01164689	      6.72970450
      1.77000000	     -6.90311697	     -1.50310123	    -26.97600319	     -0.88386252	      0.87791250	     -0.38879309	     38.61718059	     -1.34649650	     -0.23033966	    -38.17832193	      5.51597698	      1.93583354	     -2.45565545	     -1.89828849	     -1.68199329	     -7.49341781	     20.52252872	     -2.53051072	     -4.37838914	      3.02187773	      6.63832649
      1.78000000	     -6.86271217	     -1.42936068	    -26.95533119	     -0.88024816	      0.87700960	     -0.38691837	     38.24068265	     -1.48011638	     -0.25651971	    -35.83515824	      5.24204188	      2.13281542	     -2.65251940	     -1.80975550	     -1.65291198	     -7.68541809	     20.83609685	     -2.51613246	     -4.34349510	      3.01022881	      6.53849455
      1.79000000	     -6.81901293	     -1.33080457	    -26.92651750	     -0.87648426	      0.87601048	     -0.38497222	     37.84295733	     -1.65172541	     -0.32171502	    -33.44275994	      4.97991830	      2.31955538	     -2.85150381	     -1.69724348	     -1.62144062	     -7.87892209	     21.15674761	     -2.48836306	     -4.29007657	      2.97808589	      6.42873874
      1.80000000	     -6.76909009	     -1.20542171	    -26.89050677	     -0.87257979	      0.87491800	     -0.38293303	     37.43265837	     -1.85689715	     -0.42028378	    -31.02544473	      4.74878320	      2.49377170	     -3.05686942	     -1.55852130	     -1.58382846	     -8.07097145	     21.48277373	     -2.44816859	     -4.22120233	      2.91815403	      6.31241847
      1.81000000	     -6.71984024	     -1.05475362	    -26.84848647	     -0.86854740	      0.87372325	     -0.38078885	     37.03026143	     -2.08503834	     -0.54696618	    -28.61592561	      4.55359272	      2.64532138	     -3.26244057	     -1.39948429	     -1.53983159	     -8.26037891	     21.81451417	     -2.40484767	     -4.13027619	      2.83241803	      6.19739516
      1.82000000	     -6.66535936	     -0.88102547	    -26.79975887	     -0.86439717	      0.87243921	     -0.37852869	     36.64111197	     -2.33303150	     -0.69302056	    -26.24226214	      4.40238195	      2.78843302	     -3.47911987	     -1.22093300	     -1.48646216	     -8.43998012	     22.15235692	     -2.35646153	     -4.02654499	      2.71875269	      6.08214470
      1.83000000	     -6.61129542	     -0.67979950	    -26.74656208	     -0.86013918	      0.87105531	     -0.37615190	     36.28837871	     -2.59756369	     -0.83969507	    -23.94115419	      4.29275507	      2.92036663	     -3.69739139	     -1.02118951	     -1.42163687	     -8.61253229	     22.49600665	     -2.30864131	     -3.90170737	      2.57613663	      5.96991982
      1.84000000	     -6.56752106	     -0.45858560	    -26.69040986	     -0.85580781	      0.86957298	     -0.37364114	     35.98487239	     -2.86295772	     -0.98085649	    -21.73095926	      4.21878705	      3.04055893	     -3.90890333	     -0.81427980	     -1.34485927	     -8.78142514	     22.84385526	     -2.26673994	     -3.75532463	      2.41089459	      5.87174948
      1.85000000	     -6.52796162	     -0.21833926	    -26.63812765	     -0.85139515	      0.86799959	     -0.37100589	     35.73583758	     -3.12798109	     -1.09107618	    -19.64278033	      4.16723108	      3.15736819	     -4.12191413	     -0.59575717	     -1.26337131	     -8.94473064	     23.20363078	     -2.22585360	     -3.59222201	      2.22661431	      5.78101268
      1.86000000	     -6.50130368	      0.04815195	    -26.59940565	     -0.84695230	      0.86631748	     -0.36822988	     35.56920299	     -3.38866982	     -1.15678962	    -17.70757740	      4.11480479	      3.24463554	     -4.32122620	     -0.36479658	     -1.18799904	     -9.10437655	     23.57873995	     -2.19139577	     -3.40933905	      2.01429112	      5.71164885
      1.87000000	     -6.48698265	      0.28641719	    -26.57520434	     -0.84243620	      0.86457900	     -0.36529062	     35.43613555	     -3.59878961	     -1.19351546	    -15.91140695	      4.08144698	      3.34195431	     -4.53593851	     -0.17428818	     -1.12953362	     -9.26319542	     23.97089278	     -2.15499350	     -3.22909527	      1.83269172	      5.66831061
      1.88000000	     -6.48329734	      0.48791316	    -26.57440249	     -0.83785174	      0.86279687	     -0.36218221	     35.33068556	     -3.74883276	     -1.20222807	    -14.25926764	      4.03749728	      3.46537451	     -4.77157938	     -0.02996659	     -1.10279732	     -9.42404544	     24.38022100	     -2.10799648	     -3.05961397	      1.69118696	      5.66093985
      1.89000000	     -6.48656520	      0.65807215	    -26.59771383	     -0.83320552	      0.86096941	     -0.35889713	     35.25600395	     -3.84455593	     -1.17718689	    -12.76945672	      4.00112216	      3.62263811	     -5.02624434	      0.07455960	     -1.11277905	     -9.58988484	     24.81000372	     -2.03842228	     -2.90358958	      1.58044907	      5.68099486
